<svg width="20" height="20" viewBox="0 0 20 20" fill="none" xmlns="http://www.w3.org/2000/svg">
<path d="M14.2265 0H5.77345C2.58761 0 0 2.58407 0 5.77345V14.2265C0 17.4124 2.58407 19.9965 5.77345 19.9965H14.2265C17.4159 19.9965 20 17.4124 20 14.2265V5.77345C20 2.58407 17.4159 0 14.2265 0ZM18.1558 14.3752C18.1558 16.492 16.4389 18.2053 14.3257 18.2053H5.67434C3.55752 18.2053 1.84425 16.4885 1.84425 14.3752V5.72389C1.84425 3.60708 3.56106 1.8938 5.67434 1.8938H14.3257C16.4425 1.8938 18.1558 3.61062 18.1558 5.72389V14.3752Z" fill="white"/>
<path d="M9.99993 4.85986C7.13267 4.85986 4.81055 7.18199 4.81055 10.0492C4.81055 12.9165 7.13267 15.2386 9.99993 15.2386C12.8672 15.2386 15.1893 12.9165 15.1893 10.0492C15.1893 7.18199 12.8672 4.85986 9.99993 4.85986ZM9.99993 13.4121C8.14152 13.4121 6.6371 11.9076 6.6371 10.0492C6.6371 8.19084 8.14152 6.68641 9.99993 6.68641C11.8583 6.68641 13.3628 8.19084 13.3628 10.0492C13.3628 11.9076 11.8583 13.4121 9.99993 13.4121Z" fill="white"/>
<path d="M15.3594 3.45508C14.6904 3.45508 14.1523 3.99667 14.1523 4.66216C14.1523 5.32764 14.6939 5.86924 15.3594 5.86924C16.0249 5.86924 16.5665 5.32764 16.5665 4.66216C16.5665 3.99667 16.0249 3.45508 15.3594 3.45508Z" fill="white"/>
</svg>
